<mxfile host="app.diagrams.net" agent="Mozilla/5.0 (X11; Linux x86_64) AppleWebKit/537.36 (KHTML, like Gecko) Chrome/127.0.0.0 Safari/537.36" version="24.7.16">
  <diagram id="prtHgNgQTEPvFCAcTncT" name="Page-1">
    <mxGraphModel grid="1" page="1" gridSize="10" guides="1" tooltips="1" connect="1" arrows="1" fold="1" pageScale="1" pageWidth="827" pageHeight="1169" math="0" shadow="0">
      <root>
        <mxCell id="0" />
        <mxCell id="1" parent="0" />
        <mxCell id="LeaL9VHzfduhXmnIsLu4-116" value="Reviews Projection" style="verticalAlign=top;align=left;shape=cube;size=10;direction=south;fontStyle=0;html=1;boundedLbl=1;spacingLeft=5;whiteSpace=wrap;" vertex="1" parent="1">
          <mxGeometry x="-1430" y="610" width="175" height="100" as="geometry" />
        </mxCell>
        <mxCell id="LeaL9VHzfduhXmnIsLu4-117" value="" style="fontStyle=1;align=center;verticalAlign=top;childLayout=stackLayout;horizontal=1;horizontalStack=0;resizeParent=1;resizeParentMax=0;resizeLast=0;marginBottom=0;" vertex="1" parent="1">
          <mxGeometry x="-1415" y="650" width="140" height="40" as="geometry" />
        </mxCell>
        <mxCell id="LeaL9VHzfduhXmnIsLu4-118" value="Middleware&lt;div&gt;Client&lt;/div&gt;" style="html=1;align=left;spacingLeft=4;verticalAlign=top;strokeColor=none;fillColor=none;whiteSpace=wrap;" vertex="1" parent="LeaL9VHzfduhXmnIsLu4-117">
          <mxGeometry width="140" height="40" as="geometry" />
        </mxCell>
        <mxCell id="LeaL9VHzfduhXmnIsLu4-119" value="" style="shape=module;jettyWidth=10;jettyHeight=4;" vertex="1" parent="LeaL9VHzfduhXmnIsLu4-118">
          <mxGeometry x="1" width="16" height="20" relative="1" as="geometry">
            <mxPoint x="-25" y="9" as="offset" />
          </mxGeometry>
        </mxCell>
        <mxCell id="LeaL9VHzfduhXmnIsLu4-111" value=". . ." style="verticalAlign=top;align=left;shape=cube;size=10;direction=south;fontStyle=0;html=1;boundedLbl=1;spacingLeft=5;whiteSpace=wrap;" vertex="1" parent="1">
          <mxGeometry x="-1475" y="640" width="175" height="100" as="geometry" />
        </mxCell>
        <mxCell id="LeaL9VHzfduhXmnIsLu4-112" value="" style="fontStyle=1;align=center;verticalAlign=top;childLayout=stackLayout;horizontal=1;horizontalStack=0;resizeParent=1;resizeParentMax=0;resizeLast=0;marginBottom=0;" vertex="1" parent="1">
          <mxGeometry x="-1460" y="680" width="140" height="40" as="geometry" />
        </mxCell>
        <mxCell id="LeaL9VHzfduhXmnIsLu4-113" value="Middleware&lt;div&gt;Client&lt;/div&gt;" style="html=1;align=left;spacingLeft=4;verticalAlign=top;strokeColor=none;fillColor=none;whiteSpace=wrap;" vertex="1" parent="LeaL9VHzfduhXmnIsLu4-112">
          <mxGeometry width="140" height="40" as="geometry" />
        </mxCell>
        <mxCell id="LeaL9VHzfduhXmnIsLu4-114" value="" style="shape=module;jettyWidth=10;jettyHeight=4;" vertex="1" parent="LeaL9VHzfduhXmnIsLu4-113">
          <mxGeometry x="1" width="16" height="20" relative="1" as="geometry">
            <mxPoint x="-25" y="9" as="offset" />
          </mxGeometry>
        </mxCell>
        <mxCell id="LeaL9VHzfduhXmnIsLu4-41" value="Client" style="verticalAlign=top;align=left;shape=cube;size=10;direction=south;fontStyle=0;html=1;boundedLbl=1;spacingLeft=5;whiteSpace=wrap;" vertex="1" parent="1">
          <mxGeometry x="-2040" y="140" width="190" height="118.75" as="geometry" />
        </mxCell>
        <mxCell id="LeaL9VHzfduhXmnIsLu4-45" value="Server" style="verticalAlign=top;align=left;shape=cube;size=10;direction=south;fontStyle=0;html=1;boundedLbl=1;spacingLeft=5;whiteSpace=wrap;" vertex="1" parent="1">
          <mxGeometry x="-1467.5" y="120" width="170" height="200" as="geometry" />
        </mxCell>
        <mxCell id="LeaL9VHzfduhXmnIsLu4-46" value="" style="fontStyle=1;align=center;verticalAlign=top;childLayout=stackLayout;horizontal=1;horizontalStack=0;resizeParent=1;resizeParentMax=0;resizeLast=0;marginBottom=0;" vertex="1" parent="1">
          <mxGeometry x="-1457.5" y="218.75" width="140" height="40" as="geometry" />
        </mxCell>
        <mxCell id="LeaL9VHzfduhXmnIsLu4-47" value="Client Handler" style="html=1;align=left;spacingLeft=4;verticalAlign=top;strokeColor=none;fillColor=none;whiteSpace=wrap;" vertex="1" parent="LeaL9VHzfduhXmnIsLu4-46">
          <mxGeometry width="140" height="40" as="geometry" />
        </mxCell>
        <mxCell id="LeaL9VHzfduhXmnIsLu4-48" value="" style="shape=module;jettyWidth=10;jettyHeight=4;" vertex="1" parent="LeaL9VHzfduhXmnIsLu4-47">
          <mxGeometry x="1" width="16" height="20" relative="1" as="geometry">
            <mxPoint x="-25" y="9" as="offset" />
          </mxGeometry>
        </mxCell>
        <mxCell id="LeaL9VHzfduhXmnIsLu4-122" style="edgeStyle=orthogonalEdgeStyle;rounded=0;orthogonalLoop=1;jettySize=auto;html=1;entryX=0;entryY=0;entryDx=130;entryDy=90;entryPerimeter=0;" edge="1" parent="1" source="LeaL9VHzfduhXmnIsLu4-111" target="LeaL9VHzfduhXmnIsLu4-57">
          <mxGeometry relative="1" as="geometry" />
        </mxCell>
        <mxCell id="LeaL9VHzfduhXmnIsLu4-57" value="Middleware" style="verticalAlign=top;align=left;shape=cube;size=10;direction=south;fontStyle=0;html=1;boundedLbl=1;spacingLeft=5;whiteSpace=wrap;" vertex="1" parent="1">
          <mxGeometry x="-1467.5" y="410" width="170" height="130" as="geometry" />
        </mxCell>
        <mxCell id="LeaL9VHzfduhXmnIsLu4-65" value="Game Projection" style="verticalAlign=top;align=left;shape=cube;size=10;direction=south;fontStyle=0;html=1;boundedLbl=1;spacingLeft=5;whiteSpace=wrap;" vertex="1" parent="1">
          <mxGeometry x="-1520" y="670" width="175" height="100" as="geometry" />
        </mxCell>
        <mxCell id="LeaL9VHzfduhXmnIsLu4-90" value="&amp;lt;&amp;lt;artifact&amp;gt;&amp;gt;&lt;br&gt;&lt;br&gt;&lt;b&gt;RabbitMQ&lt;/b&gt;" style="html=1;align=center;verticalAlign=middle;dashed=0;whiteSpace=wrap;" vertex="1" parent="1">
          <mxGeometry x="-1457.5" y="460" width="140" height="60" as="geometry" />
        </mxCell>
        <mxCell id="LeaL9VHzfduhXmnIsLu4-107" value="" style="fontStyle=1;align=center;verticalAlign=top;childLayout=stackLayout;horizontal=1;horizontalStack=0;resizeParent=1;resizeParentMax=0;resizeLast=0;marginBottom=0;" vertex="1" parent="1">
          <mxGeometry x="-1505" y="710" width="140" height="40" as="geometry" />
        </mxCell>
        <mxCell id="LeaL9VHzfduhXmnIsLu4-108" value="Middleware&lt;div&gt;Client&lt;/div&gt;" style="html=1;align=left;spacingLeft=4;verticalAlign=top;strokeColor=none;fillColor=none;whiteSpace=wrap;" vertex="1" parent="LeaL9VHzfduhXmnIsLu4-107">
          <mxGeometry width="140" height="40" as="geometry" />
        </mxCell>
        <mxCell id="LeaL9VHzfduhXmnIsLu4-109" value="" style="shape=module;jettyWidth=10;jettyHeight=4;" vertex="1" parent="LeaL9VHzfduhXmnIsLu4-108">
          <mxGeometry x="1" width="16" height="20" relative="1" as="geometry">
            <mxPoint x="-25" y="9" as="offset" />
          </mxGeometry>
        </mxCell>
        <mxCell id="LeaL9VHzfduhXmnIsLu4-131" value="" style="fontStyle=1;align=center;verticalAlign=top;childLayout=stackLayout;horizontal=1;horizontalStack=0;resizeParent=1;resizeParentMax=0;resizeLast=0;marginBottom=0;" vertex="1" parent="1">
          <mxGeometry x="-2030" y="198.75" width="140" height="40" as="geometry" />
        </mxCell>
        <mxCell id="LeaL9VHzfduhXmnIsLu4-132" value="Client Protocol" style="html=1;align=left;spacingLeft=4;verticalAlign=top;strokeColor=none;fillColor=none;whiteSpace=wrap;" vertex="1" parent="LeaL9VHzfduhXmnIsLu4-131">
          <mxGeometry width="140" height="40" as="geometry" />
        </mxCell>
        <mxCell id="LeaL9VHzfduhXmnIsLu4-133" value="" style="shape=module;jettyWidth=10;jettyHeight=4;" vertex="1" parent="LeaL9VHzfduhXmnIsLu4-132">
          <mxGeometry x="1" width="16" height="20" relative="1" as="geometry">
            <mxPoint x="-25" y="9" as="offset" />
          </mxGeometry>
        </mxCell>
        <mxCell id="LeaL9VHzfduhXmnIsLu4-134" value="" style="fontStyle=1;align=center;verticalAlign=top;childLayout=stackLayout;horizontal=1;horizontalStack=0;resizeParent=1;resizeParentMax=0;resizeLast=0;marginBottom=0;" vertex="1" parent="1">
          <mxGeometry x="-1457.5" y="168.75" width="140" height="40" as="geometry" />
        </mxCell>
        <mxCell id="LeaL9VHzfduhXmnIsLu4-135" value="Server Protocol" style="html=1;align=left;spacingLeft=4;verticalAlign=top;strokeColor=none;fillColor=none;whiteSpace=wrap;" vertex="1" parent="LeaL9VHzfduhXmnIsLu4-134">
          <mxGeometry width="140" height="40" as="geometry" />
        </mxCell>
        <mxCell id="LeaL9VHzfduhXmnIsLu4-136" value="" style="shape=module;jettyWidth=10;jettyHeight=4;" vertex="1" parent="LeaL9VHzfduhXmnIsLu4-135">
          <mxGeometry x="1" width="16" height="20" relative="1" as="geometry">
            <mxPoint x="-25" y="9" as="offset" />
          </mxGeometry>
        </mxCell>
        <mxCell id="LeaL9VHzfduhXmnIsLu4-138" style="edgeStyle=orthogonalEdgeStyle;rounded=0;orthogonalLoop=1;jettySize=auto;html=1;exitX=0;exitY=0;exitDx=200;exitDy=90;exitPerimeter=0;entryX=0.023;entryY=0.526;entryDx=0;entryDy=0;entryPerimeter=0;" edge="1" parent="1" source="LeaL9VHzfduhXmnIsLu4-45" target="LeaL9VHzfduhXmnIsLu4-57">
          <mxGeometry relative="1" as="geometry" />
        </mxCell>
        <mxCell id="LeaL9VHzfduhXmnIsLu4-141" style="edgeStyle=orthogonalEdgeStyle;rounded=0;orthogonalLoop=1;jettySize=auto;html=1;entryX=0;entryY=0;entryDx=84.375;entryDy=170;entryPerimeter=0;exitX=0.539;exitY=-0.005;exitDx=0;exitDy=0;exitPerimeter=0;" edge="1" parent="1" source="LeaL9VHzfduhXmnIsLu4-41" target="LeaL9VHzfduhXmnIsLu4-45">
          <mxGeometry relative="1" as="geometry">
            <mxPoint x="-1620" y="204" as="sourcePoint" />
          </mxGeometry>
        </mxCell>
        <mxCell id="LeaL9VHzfduhXmnIsLu4-172" value="" style="fontStyle=1;align=center;verticalAlign=top;childLayout=stackLayout;horizontal=1;horizontalStack=0;resizeParent=1;resizeParentMax=0;resizeLast=0;marginBottom=0;" vertex="1" parent="1">
          <mxGeometry x="-1457.5" y="270" width="140" height="40" as="geometry" />
        </mxCell>
        <mxCell id="LeaL9VHzfduhXmnIsLu4-173" value="Middleware&lt;div&gt;Client&lt;/div&gt;" style="html=1;align=left;spacingLeft=4;verticalAlign=top;strokeColor=none;fillColor=none;whiteSpace=wrap;" vertex="1" parent="LeaL9VHzfduhXmnIsLu4-172">
          <mxGeometry width="140" height="40" as="geometry" />
        </mxCell>
        <mxCell id="LeaL9VHzfduhXmnIsLu4-174" value="" style="shape=module;jettyWidth=10;jettyHeight=4;" vertex="1" parent="LeaL9VHzfduhXmnIsLu4-173">
          <mxGeometry x="1" width="16" height="20" relative="1" as="geometry">
            <mxPoint x="-25" y="9" as="offset" />
          </mxGeometry>
        </mxCell>
        <mxCell id="LeaL9VHzfduhXmnIsLu4-175" value="&amp;lt;&amp;lt; TCP &amp;gt;&amp;gt;" style="text;html=1;align=center;verticalAlign=middle;whiteSpace=wrap;rounded=0;" vertex="1" parent="1">
          <mxGeometry x="-1710" y="163.75" width="100" height="30" as="geometry" />
        </mxCell>
        <mxCell id="LeaL9VHzfduhXmnIsLu4-176" value="&amp;lt;&amp;lt; AMPQ &amp;gt;&amp;gt;" style="text;html=1;align=center;verticalAlign=middle;whiteSpace=wrap;rounded=0;" vertex="1" parent="1">
          <mxGeometry x="-1380" y="350" width="100" height="30" as="geometry" />
        </mxCell>
        <mxCell id="LeaL9VHzfduhXmnIsLu4-177" value="&amp;lt;&amp;lt; AMPQ &amp;gt;&amp;gt;" style="text;html=1;align=center;verticalAlign=middle;whiteSpace=wrap;rounded=0;" vertex="1" parent="1">
          <mxGeometry x="-1380" y="560" width="100" height="30" as="geometry" />
        </mxCell>
      </root>
    </mxGraphModel>
  </diagram>
</mxfile>
